<svg id="Filled" height="512" viewBox="0 0 512 512" width="512" xmlns="http://www.w3.org/2000/svg"><g><g><g><rect fill="#f29a49" height="464" rx="20" width="256" x="128" y="24"/><rect fill="#fdbf67" height="220" rx="10" transform="matrix(0 1 -1 0 512 0)" width="428" x="42" y="146"/></g><g><g><rect fill="#abbf71" height="240" rx="10" width="400" x="56" y="72"/><g fill="#fdbf67"><rect height="80" rx="10" width="112" x="88" y="104"/><path d="m364 104h40a20 20 0 0 1 20 20v20a0 0 0 0 1 0 0h-60a20 20 0 0 1 -20-20 20 20 0 0 1 20-20z"/></g></g><path d="m334 224h90a0 0 0 0 1 0 0v18a30 30 0 0 1 -30 30h-90a0 0 0 0 1 0 0v-18a30 30 0 0 1 30-30z" fill="#fdbf67"/></g></g><path d="m236.667 441.876c-28.586-20.806-47.763-50.916-54-84.784l-6.667-45.092 80-32 80 32-6.737 45.437c-6.3 34.173-25.723 64.46-54.7 85.281l-18.491 13.282z" fill="#4dccff"/><g><path d="m376 44v4h16v-4a28.032 28.032 0 0 0 -28-28h-156v16h156a12.013 12.013 0 0 1 12 12z"/><path d="m136 44a12.013 12.013 0 0 1 12-12h44v-16h-44a28.032 28.032 0 0 0 -28 28v4h16z"/><path d="m136 468v-132h-16v132a28.032 28.032 0 0 0 28 28h156v-16h-156a12.013 12.013 0 0 1 -12-12z"/><path d="m376 468a12.013 12.013 0 0 1 -12 12h-44v16h44a28.032 28.032 0 0 0 28-28v-132h-16z"/><path d="m448 302a2 2 0 0 1 -2 2h-86v16h86a18.021 18.021 0 0 0 18-18v-126h-16z"/><path d="m446 64h-380a18.021 18.021 0 0 0 -18 18v220a18.021 18.021 0 0 0 18 18h86v-16h-86a2 2 0 0 1 -2-2v-220a2 2 0 0 1 2-2h380a2 2 0 0 1 2 2v78h16v-78a18.021 18.021 0 0 0 -18-18z"/><path d="m190 192a18.021 18.021 0 0 0 18-18v-60a18.021 18.021 0 0 0 -18-18h-92a18.021 18.021 0 0 0 -18 18v60a18.021 18.021 0 0 0 18 18zm2-18a2 2 0 0 1 -2 2h-26.184l9.6-24h18.584zm0-60v22h-18.584l-9.6-24h26.184a2 2 0 0 1 2 2zm-45.416-2 12.8 32-12.8 32h-5.168l-12.8-32 12.8-32zm-48.584 0h26.184l-9.6 24h-18.584v-22a2 2 0 0 1 2-2zm-2 62v-22h18.584l9.6 24h-26.184a2 2 0 0 1 -2-2z"/><path d="m432 124a28.032 28.032 0 0 0 -28-28h-40a28 28 0 0 0 0 56h60a8 8 0 0 0 8-8zm-16 12h-52a12 12 0 0 1 0-24h40a12.013 12.013 0 0 1 12 12z"/><path d="m80 264h40v16h-40z"/><path d="m136 264h72v16h-72z"/><path d="m80 224h16v16h-16z"/><path d="m112 224h16v16h-16z"/><path d="m144 224h16v16h-16z"/><path d="m176 224h16v16h-16z"/><path d="m208 224h16v16h-16z"/><path d="m384 176h48v16h-48z"/><path d="m336 176h32v16h-32z"/><path d="m296 254v18a8 8 0 0 0 8 8h90a38.043 38.043 0 0 0 38-38v-18a8 8 0 0 0 -8-8h-90a38.043 38.043 0 0 0 -38 38zm120-12a22.025 22.025 0 0 1 -22 22h-82v-10a22.025 22.025 0 0 1 22-22h82z"/><path d="m174.754 358.262c.014.093.029.186.046.278 6.608 35.895 26.908 67.787 57.159 89.8l19.4 14.124a8 8 0 0 0 9.376.029l18.489-13.282c30.668-22.032 51.231-54.111 57.9-90.328.017-.092.032-.184.046-.276l6.737-45.437a8 8 0 0 0 -4.942-8.6l-80-32a8 8 0 0 0 -5.942 0l-32 12.8 5.942 14.856 29.035-11.61 71.158 28.464-5.789 39.044c-5.945 32.074-24.223 60.516-51.478 80.1l-13.79 9.907-14.727-10.72c-26.884-19.566-44.926-47.84-50.814-79.628l-5.723-38.7 26.133-10.453-5.942-14.856-32 12.8a8 8 0 0 0 -4.943 8.6z"/><path d="m247.81 392.061a7.982 7.982 0 0 0 5.657-2.343l48-48-11.315-11.318-42.342 42.347-18.343-18.347-11.315 11.315 24 24a7.982 7.982 0 0 0 5.658 2.346z"/></g></g></svg>