<svg id="Capa_1" enable-background="new 0 0 512 512" height="512" viewBox="0 0 512 512" width="512" xmlns="http://www.w3.org/2000/svg"><g><g><g><path d="m282.264 209.533 60.554 16.231c22.079 5.918 37.431 25.927 37.431 48.786v64.284h-248.5v-64.284c0-22.859 15.352-42.868 37.431-48.786l60.554-16.231z" fill="#f6f9f9"/></g><g><path d="m266.102 283.274 20.203 55.559h-59.478l19.071-55.559z" fill="#e28086"/></g><g><path d="m280.661 256.348-24.661-20.551-24.661 20.551 14.559 26.926h20.204z" fill="#dd636e"/></g><g><path d="m229.736 209.533-30.931 8.29 14.768 53.329 42.427-35.355v-26.264z" fill="#dfeaef"/></g><g><path d="m282.264 209.533 30.931 8.29-14.768 53.329-42.427-35.355v-26.264z" fill="#dfeaef"/></g><g><path d="m350.728 228.605c2.755 6.263 4.268 13.153 4.268 20.324v89.904h25.254v-64.283c0-20.016-11.771-37.846-29.522-45.945z" fill="#f1f4f6"/></g><g><path d="m256 235.797c-14.505 0-26.264-11.759-26.264-26.264v-32.325h52.528v32.325c0 14.505-11.759 26.264-26.264 26.264z" fill="#f1d0a5"/></g><g><path d="m229.736 197.831c8.198 2.994 17.043 4.63 26.264 4.63s18.067-1.637 26.264-4.63v-20.624h-52.528z" fill="#f1b986"/></g><g><path d="m197.411 67.1v58.589c0 32.358 26.231 58.589 58.589 58.589s58.589-26.231 58.589-58.589v-58.589z" fill="#f1d0a5"/></g><g><path d="m294.386 67.1v78.793c0 10.998-3.037 21.285-8.308 30.078 17.077-10.238 28.511-28.922 28.511-50.281v-58.59z" fill="#f1b986"/></g><g><path d="m296.406 87.303h18.183v-39.396c0-12.274-9.95-22.224-22.224-22.224h-16.163v41.417c.001 11.158 9.047 20.203 20.204 20.203z" fill="#544f57"/></g><g><path d="m256 87.303h-58.589v-39.396c0-22.316 18.091-40.407 40.407-40.407h20.203c10.042 0 18.183 8.141 18.183 18.183v41.417c-.001 11.158-9.046 20.203-20.204 20.203z" fill="#665e66"/></g></g><g><g><path d="m494.398 373.179h-476.796c-5.579 0-10.102-4.523-10.102-10.102v-14.142c0-5.579 4.523-10.102 10.102-10.102h476.797c5.579 0 10.102 4.523 10.102 10.102v14.142c-.001 5.579-4.524 10.102-10.103 10.102z" fill="#665e66"/></g><g><path d="m494.398 338.833h-28.285c5.579 0 10.102 4.523 10.102 10.102v14.142c0 5.579-4.523 10.102-10.102 10.102h28.285c5.579 0 10.102-4.523 10.102-10.102v-14.142c0-5.579-4.523-10.102-10.102-10.102z" fill="#544f57"/></g><g><path d="m474.195 407.524h-436.39c-5.579 0-10.102-4.523-10.102-10.102v-24.244h456.594v24.244c0 5.58-4.523 10.102-10.102 10.102z" fill="#c19d8e"/></g><g><path d="m453.992 373.179v24.244c0 5.579-4.523 10.102-10.102 10.102h30.305c5.579 0 10.102-4.523 10.102-10.102v-24.244z" fill="#b78b7a"/></g><g><path d="m47.907 407.524h416.187v96.976h-416.187z" fill="#b78b7a"/></g><g><path d="m47.907 407.524v26.264h383.862c3.347 0 6.061 2.714 6.061 6.061v64.65h26.264v-96.976h-416.187z" fill="#aa7a63"/></g><g><path d="m88.313 407.524h335.374v96.976h-335.374z" fill="#c19d8e"/></g><g><path d="m88.313 407.524h335.374v26.264h-335.374z" fill="#b78b7a"/></g></g><g><path d="m484.297 7.5h-117.179c-11.158 0-20.203 9.045-20.203 20.203v80.813c0 11.158 9.045 20.203 20.203 20.203h11.112v34.346l35.356-34.346h70.711c11.158 0 20.203-9.045 20.203-20.203v-80.813c0-11.158-9.045-20.203-20.203-20.203z" fill="#cbe2ff"/></g><g><path d="m494.398 331.333h-63.211v-83.851c0-12.795-4.983-24.825-14.032-33.875l-11.01-11.01c.234-1.02.369-2.076.369-3.167 0-7.811-6.332-14.142-14.142-14.142s-14.142 6.332-14.142 14.142 6.332 14.142 14.142 14.142c1.09 0 2.147-.135 3.167-.369l11.009 11.01c6.216 6.216 9.639 14.479 9.639 23.269v83.851h-28.437v-56.783c0-26.206-17.678-49.246-42.99-56.03l-54.996-14.742v-21.305c19.339-11.543 32.325-32.671 32.325-56.783v-77.784c0-16.39-13.334-29.724-29.724-29.724h-9.783c-3.215-10.513-13.008-18.182-24.561-18.182h-20.204c-26.416 0-47.906 21.49-47.906 47.906v77.783c0 24.112 12.986 45.24 32.325 56.783v21.305l-54.996 14.743c-25.312 6.784-42.99 29.824-42.99 56.03v56.783h-28.437v-83.851c0-8.789 3.423-17.053 9.638-23.268l11.01-11.01c1.02.233 2.076.369 3.167.369 7.811 0 14.142-6.332 14.142-14.142s-6.332-14.142-14.142-14.142-14.142 6.332-14.142 14.142c0 1.091.135 2.148.369 3.167l-11.01 11.01c-9.049 9.049-14.032 21.079-14.032 33.874v83.851h-63.211c-9.706 0-17.602 7.896-17.602 17.602v14.143c0 9.705 7.896 17.602 17.602 17.602h2.602v16.744c0 9.705 7.896 17.602 17.602 17.602h2.602v89.474c0 4.143 3.358 7.5 7.5 7.5s7.5-3.357 7.5-7.5v-89.476h25.406v89.476c0 4.143 3.358 7.5 7.5 7.5s7.5-3.357 7.5-7.5v-89.476h32.616c4.142 0 7.5-3.357 7.5-7.5s-3.358-7.5-7.5-7.5h-90.625c-1.435 0-2.602-1.167-2.602-2.602v-16.744h380.904c4.142 0 7.5-3.357 7.5-7.5s-3.358-7.5-7.5-7.5h-398.505c-1.435 0-2.602-1.167-2.602-2.602v-14.143c0-1.435 1.167-2.602 2.602-2.602h476.797c1.435 0 2.602 1.167 2.602 2.602v14.143c0 1.435-1.167 2.602-2.602 2.602h-43.149c-4.142 0-7.5 3.357-7.5 7.5s3.358 7.5 7.5 7.5h25.547v16.744c0 1.435-1.167 2.602-2.602 2.602h-310.624c-4.142 0-7.5 3.357-7.5 7.5s3.358 7.5 7.5 7.5h252.616v89.476c0 4.143 3.358 7.5 7.5 7.5s7.5-3.357 7.5-7.5v-89.476h25.406v89.476c0 4.143 3.358 7.5 7.5 7.5s7.5-3.357 7.5-7.5v-89.476h2.602c9.706 0 17.602-7.896 17.602-17.602v-16.744h2.602c9.706 0 17.602-7.896 17.602-17.602v-14.143c-.001-9.704-7.897-17.6-17.603-17.6zm-254.316-92.034-13.541 11.284c-.016.013-.031.026-.047.039l-8.794 7.328-9.648-34.842 15.53-4.163c2.554 8.786 8.583 16.103 16.5 20.354zm11.171 51.475h9.595l14.749 40.559h-38.266zm10.378-15h-11.262l-9.513-17.595 15.144-12.619 15.144 12.62zm23.875-25.151c-.016-.013-.031-.026-.047-.039l-13.541-11.284c7.917-4.251 13.946-11.568 16.501-20.353l15.53 4.163-9.648 34.842zm21.583-202.717v31.896h-10.683c-7.005 0-12.704-5.698-12.704-12.703v-33.916h8.663c8.119 0 14.724 6.605 14.724 14.723zm-102.178 0c0-18.145 14.762-32.906 32.906-32.906h20.204c5.891 0 10.683 4.792 10.683 10.683v41.417c0 7.005-5.699 12.703-12.703 12.703h-51.089v-31.897zm0 77.783v-30.886h51.089c7.962 0 15.145-3.381 20.203-8.777 5.058 5.396 12.241 8.777 20.204 8.777h10.683v30.887c0 28.171-22.918 51.089-51.089 51.089s-51.09-22.919-51.09-51.09zm51.089 66.089c6.518 0 12.812-.963 18.764-2.729v20.483c0 10.347-8.417 18.765-18.764 18.765s-18.764-8.418-18.764-18.765v-20.483c5.952 1.766 12.246 2.729 18.764 2.729zm-116.75 82.772c0-19.43 13.107-36.512 31.874-41.542l22.439-6.015 12.783 46.161c.68 2.454 2.559 4.396 4.991 5.156.734.229 1.488.342 2.237.342 1.731 0 3.436-.6 4.802-1.738l10.726-8.938 8.637 15.973-16.265 47.384h-28.684v-12.703c0-4.143-3.358-7.5-7.5-7.5s-7.5 3.357-7.5 7.5v12.703h-38.54zm194.961 56.783v-12.703c0-4.143-3.358-7.5-7.5-7.5s-7.5 3.357-7.5 7.5v12.703h-27.654l-17.256-47.455 8.598-15.902 10.726 8.938c1.366 1.139 3.07 1.738 4.802 1.738.749 0 1.503-.112 2.237-.342 2.432-.76 4.311-2.702 4.991-5.156l12.783-46.161 22.439 6.015c18.767 5.03 31.874 22.112 31.874 41.542v56.783z"/><path d="m484.297 0h-117.179c-15.275 0-27.703 12.428-27.703 27.703v80.813c0 15.275 12.428 27.703 27.703 27.703h3.612v26.846c0 3.014 1.804 5.734 4.58 6.908.942.398 1.935.592 2.919.592 1.915 0 3.799-.733 5.228-2.12l33.173-32.226h20.425c4.142 0 7.5-3.357 7.5-7.5s-3.358-7.5-7.5-7.5h-23.468c-1.952 0-3.826.761-5.226 2.12l-22.63 21.983v-16.602c0-4.143-3.358-7.5-7.5-7.5h-11.112c-7.004 0-12.703-5.698-12.703-12.703v-80.814c0-7.005 5.699-12.703 12.703-12.703h117.179c7.003 0 12.702 5.698 12.702 12.703v80.813c0 7.005-5.699 12.703-12.703 12.703h-12.154c-4.142 0-7.5 3.357-7.5 7.5s3.358 7.5 7.5 7.5h12.154c15.275 0 27.703-12.428 27.703-27.703v-80.813c0-15.275-12.428-27.703-27.703-27.703z"/></g></g></svg>