<svg id="Business" height="512" viewBox="0 0 64 64" width="512" xmlns="http://www.w3.org/2000/svg" xmlns:xlink="http://www.w3.org/1999/xlink"><linearGradient id="gradient_ice" gradientUnits="userSpaceOnUse" x1="-10.795" x2="41.76" y1="46.234" y2="-5.008"><stop offset="0" stop-color="#fff200"/><stop offset="1" stop-color="#cd118c"/></linearGradient><linearGradient id="gradient_ice-2" x1="-.859" x2="51.697" xlink:href="#gradient_ice" y1="56.425" y2="5.183"/><linearGradient id="gradient_ice-3" x1="3.171" x2="55.726" xlink:href="#gradient_ice" y1="60.558" y2="9.317"/><linearGradient id="gradient_ice-4" x1="2.703" x2="55.258" xlink:href="#gradient_ice" y1="60.077" y2="8.836"/><linearGradient id="gradient_ice-5" x1="18.291" x2="70.847" xlink:href="#gradient_ice" y1="76.066" y2="24.825"/><linearGradient id="gradient_ice-6" x1="10.744" x2="63.299" xlink:href="#gradient_ice" y1="68.325" y2="17.083"/><path d="m8 27h16a1 1 0 0 0 1-1v-2a9.01 9.01 0 0 0 -5.623-8.337 5 5 0 1 0 -6.754 0 9.01 9.01 0 0 0 -5.623 8.337v2a1 1 0 0 0 1 1zm5-15a3 3 0 1 1 3 3 3 3 0 0 1 -3-3zm-4 12a7 7 0 0 1 14 0v1h-14z" fill="url(#gradient_ice)"/><path d="m28 19h17v2h-17z" fill="url(#gradient_ice-2)"/><path d="m7 49h14v2h-14z" fill="url(#gradient_ice-3)"/><path d="m60 40h-6.03a9.985 9.985 0 0 0 -3.97-17.8v-7.33a1.007 1.007 0 0 0 -.29-.71l-11.83-11.87a1.033 1.033 0 0 0 -.71-.29h-34.17a1 1 0 0 0 -1 1v58a1 1 0 0 0 1 1h57a1 1 0 0 0 1-1v-20a1 1 0 0 0 -1-1zm-4-8a8 8 0 1 1 -8-8 8.011 8.011 0 0 1 8 8zm-18-26.75 8.72 8.75h-3.72a5 5 0 0 1 -5-5zm-11 35.75v2h-20v2h20v15h-23v-56h32v5a7.008 7.008 0 0 0 7 7h5v6a9.97 9.97 0 0 0 -7.13 3h-12.87v2h11.35a10.09 10.09 0 0 0 -1.3 4h-31.05v2h31.05a10.09 10.09 0 0 0 1.3 4h-32.35v2h33.87a11.1 11.1 0 0 0 1.16 1h-14.03a1 1 0 0 0 -1 1zm32 19h-30v-18h30z" fill="url(#gradient_ice-4)"/><path d="m34 44a1 1 0 0 0 -1 1 1 1 0 0 1 -1 1 1 1 0 0 0 -1 1v8a1 1 0 0 0 1 1 1 1 0 0 1 1 1 1 1 0 0 0 1 1h20a1 1 0 0 0 1-1 1 1 0 0 1 1-1 1 1 0 0 0 1-1v-8a1 1 0 0 0 -1-1 1 1 0 0 1 -1-1 1 1 0 0 0 -1-1zm15 7a5 5 0 1 1 -5-5 5.006 5.006 0 0 1 5 5zm-14.171 5a3.018 3.018 0 0 0 -1.829-1.829v-6.342a3.018 3.018 0 0 0 1.829-1.829h4.281a6.979 6.979 0 0 0 0 10zm18.342-10a3.018 3.018 0 0 0 1.829 1.829v6.342a3.018 3.018 0 0 0 -1.829 1.829h-4.281a6.979 6.979 0 0 0 0-10z" fill="url(#gradient_ice-5)"/><path d="m47 26v1h-1a1 1 0 0 0 -1 1v4a1 1 0 0 0 1 1h3v2h-2v-1h-2v2a1 1 0 0 0 1 1h1v1h2v-1h1a1 1 0 0 0 1-1v-4a1 1 0 0 0 -1-1h-3v-2h2v1h2v-2a1 1 0 0 0 -1-1h-1v-1z" fill="url(#gradient_ice-6)"/></svg>