<svg id="Layer_1" enable-background="new 0 0 512.001 512.001" height="512" viewBox="0 0 512.001 512.001" width="512" xmlns="http://www.w3.org/2000/svg"><g><g clip-rule="evenodd" fill-rule="evenodd"><path d="m207.601 189.997c18.929 0 34.897-13.326 38.986-31.059.663-2.877 1.014-5.87 1.014-8.941v-20c0-22-18-40-40-40s-40 18-40 40v20c0 3.071.351 6.063 1.014 8.94 4.088 17.734 20.056 31.06 38.986 31.06z" fill="#ffdcd5"/><path d="m246.586 158.938c-4.089 17.733-20.057 31.059-38.986 31.059s-34.897-13.326-38.985-31.06c-30.118 14.594-51.015 45.506-51.015 81.062l40-.003v70.002h100v-70.002l40 .003c.001-35.556-20.896-66.467-51.014-81.061z" fill="#8481e2"/><path d="m157.6 309.999v-70.002l-40 .003v70c0 11 9 20 20 20h20z" fill="#ffdcd5"/><path d="m257.6 239.996v70.002 20.001h20c11 0 20-9 20-20v-70z" fill="#ffdcd5"/><path d="m257.6 309.999h-100v20 160.001l100-.001v-160z" fill="#c68a65"/><path d="m87.314 407.003c0-15.463-12.651-28.114-28.114-28.114s-28.114 12.651-28.114 28.114v14.057c0 7.187 2.733 13.767 7.211 18.751 5.156 5.74 12.627 9.364 20.903 9.364s15.747-3.624 20.903-9.364c4.478-4.984 7.211-11.564 7.211-18.751z" fill="#ffdcd5"/><path d="m80.103 439.811c-5.157 5.74-12.627 9.364-20.903 9.364s-15.747-3.624-20.902-9.365c-16.684 7.895-28.298 24.91-28.298 44.507v17.685h98.4v-17.685c0-19.597-11.614-36.612-28.297-44.506z" fill="#ffc144"/><path d="m185.714 407.003c0-15.463-12.651-28.114-28.114-28.114s-28.114 12.651-28.114 28.114v14.057c0 7.187 2.733 13.767 7.211 18.751 5.157 5.74 12.627 9.364 20.903 9.364s15.746-3.624 20.903-9.364c4.478-4.984 7.211-11.564 7.211-18.751z" fill="#ffdcd5"/><path d="m178.503 439.811c-5.157 5.74-12.627 9.364-20.903 9.364s-15.747-3.624-20.902-9.365c-16.684 7.895-28.298 24.91-28.298 44.507v17.685h98.4v-17.685c0-19.597-11.614-36.612-28.297-44.506z" fill="#ffc144"/><path d="m284.114 407.003c0-15.463-12.651-28.114-28.114-28.114s-28.114 12.651-28.114 28.114v14.057c0 7.187 2.733 13.767 7.211 18.751 5.157 5.74 12.627 9.364 20.903 9.364s15.746-3.624 20.903-9.364c4.478-4.984 7.211-11.564 7.211-18.751z" fill="#ffdcd5"/><path d="m276.903 439.811c-5.157 5.74-12.627 9.364-20.903 9.364s-15.746-3.624-20.902-9.365c-16.684 7.895-28.298 24.91-28.298 44.507v17.685h98.4v-17.685c.001-19.597-11.614-36.612-28.297-44.506z" fill="#ffc144"/><path d="m382.515 407.003c0-15.463-12.651-28.114-28.114-28.114s-28.114 12.651-28.114 28.114v14.057c0 7.187 2.733 13.767 7.211 18.751 5.157 5.74 12.627 9.364 20.903 9.364s15.747-3.624 20.903-9.364c4.478-4.984 7.211-11.564 7.211-18.751z" fill="#ffdcd5"/><path d="m375.304 439.811c-5.157 5.74-12.627 9.364-20.903 9.364s-15.746-3.624-20.902-9.365c-16.684 7.895-28.298 24.91-28.298 44.507v17.685h98.401v-17.685c-.001-19.597-11.615-36.612-28.298-44.506z" fill="#ffc144"/><path d="m480.915 407.003c0-15.463-12.651-28.114-28.114-28.114s-28.114 12.651-28.114 28.114v14.057c0 7.187 2.733 13.767 7.211 18.751 5.157 5.74 12.627 9.364 20.903 9.364s15.746-3.624 20.903-9.364c4.478-4.984 7.211-11.564 7.211-18.751z" fill="#ffdcd5"/><path d="m473.704 439.811c-5.157 5.74-12.627 9.364-20.903 9.364s-15.746-3.624-20.902-9.365c-16.684 7.895-28.298 24.91-28.298 44.507v17.685h98.4v-17.685c0-19.597-11.614-36.612-28.297-44.506z" fill="#ffc144"/><path d="m117.601 239.999c0-35.556 20.897-66.468 51.014-81.061-.663-2.877-1.014-5.869-1.014-8.94v-20c0-22 18-40 40-40s40 18 40 40v20c0 3.071-.351 6.064-1.014 8.941 30.117 14.594 51.014 45.505 51.014 81.061v50h138.399v-240h-360v240h41.6v-50.001z" fill="#fff"/><path d="m117.601 289.999h-41.601v-239.999h360v240h-138.4v20c0 11-9 20-20 20h188.4c5.5 0 10-4.5 10-10v-300.001c0-5.5-4.5-10-10-10h-420c-5.5 0-10 4.5-10 10v300.001c0 5.5 4.5 10 10 10h91.6c-11 0-20-9-20-20v-20.001z" fill="#c5d3de"/></g><g><path d="m487.635 436.5c2.102-4.723 3.28-9.945 3.28-15.439v-14.058c0-21.017-17.098-38.114-38.114-38.114s-38.114 17.098-38.114 38.114v14.058c0 5.503 1.182 10.732 3.29 15.461-5.689 4.13-10.548 9.147-14.376 14.842-3.828-5.694-8.686-10.711-14.374-14.842 2.108-4.729 3.29-9.959 3.29-15.462v-14.058c0-21.017-17.098-38.114-38.114-38.114s-38.114 17.098-38.114 38.114v14.058c0 5.503 1.182 10.732 3.289 15.461-5.689 4.131-10.548 9.148-14.377 14.843-3.828-5.694-8.687-10.711-14.374-14.842 2.108-4.729 3.29-9.959 3.29-15.462v-14.058c0-16.973-11.154-31.384-26.516-36.304v-30.7h10.001 188.4c11.027 0 19.999-8.972 19.999-19.999v-300c-.001-11.027-8.973-19.999-20-19.999h-420.001c-11.027 0-19.999 8.972-19.999 19.999v300.001c0 11.027 8.972 19.999 19.999 19.999h91.601 9.999v30.23c-16.18 4.405-28.114 19.218-28.114 36.774v14.058c0 5.503 1.182 10.732 3.29 15.461-5.689 4.13-10.548 9.147-14.376 14.842-3.828-5.694-8.686-10.711-14.374-14.842 2.108-4.729 3.29-9.959 3.29-15.462v-14.058c0-21.017-17.098-38.114-38.114-38.114s-38.115 17.098-38.115 38.114v14.058c0 5.494 1.178 10.715 3.279 15.438-15.231 11.055-24.366 28.62-24.366 47.819v17.684c0 5.522 4.478 10 10 10h492.001c5.522 0 10-4.478 10-10v-17.684c0-19.192-9.138-36.762-24.366-47.817zm-446.55-29.497c0-9.988 8.127-18.114 18.115-18.114s18.114 8.126 18.114 18.114v14.058c0 9.988-8.126 18.114-18.114 18.114s-18.115-8.126-18.115-18.114zm57.315 84.998h-78.4v-7.684c0-12.849 6.546-24.993 17.046-32.271 6.249 4.48 13.896 7.129 22.154 7.129 8.264 0 15.916-2.652 22.167-7.138 10.625 7.285 17.034 19.221 17.034 32.281v7.683zm336.287-84.998c0-9.988 8.126-18.114 18.114-18.114s18.114 8.126 18.114 18.114v14.058c0 9.988-8.126 18.114-18.114 18.114s-18.114-8.126-18.114-18.114zm-98.4 0c0-9.988 8.126-18.114 18.114-18.114s18.114 8.126 18.114 18.114v14.058c0 9.988-8.126 18.114-18.114 18.114s-18.114-8.126-18.114-18.114zm-4.039 45.043c6.249 4.48 13.895 7.129 22.153 7.129 8.264 0 15.916-2.652 22.167-7.138 10.625 7.285 17.034 19.221 17.034 32.281v7.684h-78.4v-7.684c-.001-12.85 6.545-24.993 17.046-32.272zm-37.047 39.955h-78.4v-7.684c0-12.849 6.545-24.992 17.046-32.271 6.249 4.48 13.895 7.129 22.153 7.129 8.264 0 15.916-2.652 22.167-7.138 10.625 7.285 17.034 19.221 17.034 32.281zm-127.601-121.772v-50.23h.001 79.999v49.834c-16.987 3.837-29.714 19.04-29.714 37.17v14.058c0 5.503 1.182 10.732 3.289 15.461-5.689 4.131-10.548 9.148-14.376 14.843-3.828-5.694-8.687-10.711-14.374-14.842 2.108-4.729 3.29-9.959 3.29-15.462v-14.058c0-17.556-11.935-32.369-28.115-36.774zm-39.999-60.23v-60l19.999-.002v70.002h-9.999c-5.514 0-10-4.486-10-10zm.619-80.001c2.88-23.112 15.666-43.672 35.205-56.615 6.902 12.984 19.353 22.586 34.175 25.607v101.008h-29.999-.001v-60.003c0-2.652-1.054-5.196-2.929-7.071-1.876-1.876-4.42-2.929-7.072-2.929zm79.38-50.001c-16.542 0-29.999-13.458-29.999-30v-20c0-16.542 13.457-30 29.999-30h.001c16.541 0 29.999 13.458 29.999 30v20c0 16.542-13.458 30-30 30zm66.515 227.006v14.058c0 9.988-8.126 18.114-18.115 18.114-9.988 0-18.114-8.126-18.114-18.114v-14.058c0-9.988 8.126-18.114 18.114-18.114 9.989 0 18.115 8.126 18.115 18.114zm-16.514-177.007c-.001 0-.001 0 0 0-2.653 0-5.196 1.054-7.072 2.929-1.875 1.875-2.929 4.419-2.929 7.071v60.003h-30v-101.008c14.821-3.02 27.271-12.621 34.173-25.603 19.534 12.945 32.324 33.514 35.208 56.61zm9.999 20.001 20.001.002v60c0 5.514-4.486 10-10 10h-10.001zm-221.6-229.997 420-.001.001 300h-160.121c1.11-3.13 1.72-6.494 1.72-10v-10h128.4c5.522 0 10-4.478 10-10v-239.999c0-5.522-4.478-10-10-10h-135.003c-5.522 0-10 4.478-10 10s4.478 10 10 10h125.003v219.999h-118.399v-40c0-18.824-5.318-37.199-15.38-53.137-8.732-13.83-20.674-25.294-34.751-33.447.077-1.131.13-2.268.13-3.419v-20c0-27.57-22.43-50-50-50-27.569 0-49.999 22.43-49.999 50v20c0 1.149.053 2.286.13 3.416-14.035 8.127-25.946 19.547-34.674 33.328-10.111 15.967-15.456 34.383-15.456 53.258v40h-.001-21.6v-219.998h124.997c5.522 0 10-4.478 10-10s-4.478-10-10-10h-134.997c-5.522 0-10 4.478-10 10v239.999c0 5.522 4.478 10 10 10h31.6.001v10c0 3.506.61 6.87 1.72 10l-63.32.001zm93.485 387.003c0-9.988 8.126-18.114 18.114-18.114 9.989 0 18.115 8.126 18.115 18.114v14.058c0 9.988-8.126 18.114-18.115 18.114-9.988 0-18.114-8.126-18.114-18.114zm-21.085 77.314c0-12.849 6.545-24.992 17.046-32.271 6.249 4.48 13.895 7.129 22.153 7.129 8.264 0 15.916-2.652 22.167-7.138 10.625 7.285 17.034 19.221 17.034 32.281v7.684h-78.4zm373.601 7.684h-78.399v-7.684c0-12.849 6.545-24.992 17.046-32.271 6.249 4.48 13.895 7.129 22.153 7.129 8.264 0 15.916-2.652 22.167-7.138 10.624 7.285 17.033 19.221 17.033 32.281z"/><path d="m256 60c5.522 0 10-4.478 10-10s-4.478-10-10-10h-.007c-5.522 0-9.996 4.478-9.996 10s4.481 10 10.003 10z"/><path d="m300.997 99.998h95.002c5.522 0 10-4.478 10-10s-4.478-10-10-10h-95.002c-5.522 0-10 4.478-10 10s4.478 10 10 10z"/><path d="m395.999 119.999h-76.623c-5.522 0-10 4.478-10 10s4.478 10 10 10h76.623c5.522 0 10-4.478 10-10s-4.478-10-10-10z"/><path d="m395.999 160.001h-49.623c-5.522 0-10 4.478-10 10s4.478 10 10 10h49.623c5.522 0 10-4.478 10-10s-4.478-10-10-10z"/></g></g></svg>