<svg id="Layer_1" enable-background="new 0 0 512 512" height="512" viewBox="0 0 512 512" width="512" xmlns="http://www.w3.org/2000/svg"><g id="XMLID_1603_"><path id="XMLID_1584_" d="m10 162h492v340h-492z" fill="#fff"/><path id="XMLID_1602_" d="m66 218h95.127v76h-95.127z" fill="#ffcd69"/><path id="XMLID_2524_" d="m66 370h95.127v76h-95.127z" fill="#7dd9c2"/><path id="XMLID_2525_" d="m256.127 370h95.127v76h-95.127z" fill="#7dd9c2"/><g fill="#ff7d97"><path id="XMLID_2521_" d="m66 294h95.127v76h-95.127z"/><path id="XMLID_2522_" d="m161.127 294h95.127v76h-95.127z"/><path id="XMLID_2523_" d="m351.127 294h95.127v76h-95.127z"/></g><path id="XMLID_2520_" d="m256.127 218h95.127v76h-95.127z" fill="#ffcd69"/><path id="XMLID_1099_" d="m10 50h492v112h-492z" fill="#00ccf2"/><g id="XMLID_991_" fill="#e2e9ee"><path id="XMLID_1535_" d="m396 76v-44c0-12.15 9.85-22 22-22 12.15 0 22 9.85 22 22v44c0 12.15-9.85 22-22 22-12.15 0-22-9.85-22-22z"/><path id="XMLID_1533_" d="m288 76v-44c0-12.15 9.85-22 22-22 12.15 0 22 9.85 22 22v44c0 12.15-9.85 22-22 22-12.15 0-22-9.85-22-22z"/><path id="XMLID_1488_" d="m180 76v-44c0-12.15 9.85-22 22-22 12.15 0 22 9.85 22 22v44c0 12.15-9.85 22-22 22-12.15 0-22-9.85-22-22z"/><path id="XMLID_993_" d="m72 76v-44c0-12.15 9.85-22 22-22 12.15 0 22 9.85 22 22v44c0 12.15-9.85 22-22 22-12.15 0-22-9.85-22-22z"/></g><g id="XMLID_1639_"><path id="XMLID_1741_" d="m502 40h-52v-8c0-17.645-14.355-32-32-32s-32 14.355-32 32v8h-44v-8c0-17.645-14.355-32-32-32s-32 14.355-32 32v8h-44v-8c0-17.645-14.355-32-32-32s-32 14.355-32 32v8h-44v-8c0-17.645-14.355-32-32-32s-32 14.355-32 32v8h-52c-5.523 0-10 4.477-10 10v452c0 5.523 4.477 10 10 10h492c5.523 0 10-4.477 10-10v-452c0-5.523-4.477-10-10-10zm-96-8c0-6.617 5.383-12 12-12s12 5.383 12 12v44c0 6.617-5.383 12-12 12s-12-5.383-12-12zm-108 0c0-6.617 5.383-12 12-12s12 5.383 12 12v44c0 6.617-5.383 12-12 12s-12-5.383-12-12zm-108 0c0-6.617 5.383-12 12-12s12 5.383 12 12v44c0 6.617-5.383 12-12 12s-12-5.383-12-12zm-108 0c0-6.617 5.383-12 12-12s12 5.383 12 12v44c0 6.617-5.383 12-12 12s-12-5.383-12-12zm-62 460v-320h191c5.523 0 10-4.477 10-10s-4.477-10-10-10h-191v-92h42v16c0 17.645 14.355 32 32 32s32-14.355 32-32v-16h44v16c0 17.645 14.355 32 32 32s32-14.355 32-32v-16h44v16c0 17.645 14.355 32 32 32s32-14.355 32-32v-16h44v16c0 17.645 14.355 32 32 32s32-14.355 32-32v-16h42v92h-191c-5.523 0-10 4.477-10 10s4.477 10 10 10h191v320z"/><path id="XMLID_1939_" d="m446 208h-380c-5.523 0-10 4.477-10 10v228c0 5.523 4.477 10 10 10h380c5.523 0 10-4.477 10-10v-228c0-5.523-4.477-10-10-10zm-370 96h75.127v56h-75.127zm95.127 0h75v56h-75zm75-20h-75v-56h75zm20-56h75v56h-75zm-20 152v56h-75v-56zm20 0h75v56h-75zm0-20v-56h75v56zm95-56h74.873v56h-74.873zm74.873-20h-74.873v-56h74.873zm-284.873-56v56h-75.127v-56zm-75.127 152h75.127v56h-75.127zm285.127 56v-56h74.873v56z"/><path id="XMLID_1970_" d="m256 172c2.63 0 5.21-1.07 7.07-2.93s2.93-4.44 2.93-7.07-1.07-5.21-2.93-7.07-4.44-2.93-7.07-2.93-5.21 1.07-7.07 2.93-2.93 4.44-2.93 7.07 1.07 5.21 2.93 7.07 4.44 2.93 7.07 2.93z"/></g></g></svg>