<svg id="Social_Distancing" height="512" viewBox="0 0 64 64" width="512" xmlns="http://www.w3.org/2000/svg" data-name="Social Distancing"><path d="m46 61h-28l1.077-7h25.846z" fill="#56788b"/><rect fill="#56788b" height="40" rx="2" width="58" x="3" y="7"/><path d="m39 57h-14l1-10h12z" fill="#d9f0f4"/><path d="m7 11h50v32h-50z" fill="#d9f0f4"/><path d="m50 39h-36v-36h29l7 9z" fill="#fff"/><path d="m36 24.286 3-6.286 3 6.286v13.714h-6z" fill="#cca174"/><path d="m36 25h6v13h-6z" fill="#ec455a" transform="matrix(-1 0 0 -1 78 63)"/><path d="m50 12h-7v-9z" fill="#d8d7da"/><path d="m59 6h-12.4l-2.81-3.61a.985.985 0 0 0 -.79-.39h-29a1 1 0 0 0 -1 1v3h-8a3.009 3.009 0 0 0 -3 3v36a3.009 3.009 0 0 0 3 3h19.89l-.5 5h-5.31a1.008 1.008 0 0 0 -.99.85l-1.08 7a1 1 0 0 0 .99 1.15h28a1 1 0 0 0 .99-1.15l-1.08-7a1.008 1.008 0 0 0 -.99-.85h-5.31l-.5-5h19.89a3.009 3.009 0 0 0 3-3v-36a3.009 3.009 0 0 0 -3-3zm-15-.09 3.96 5.09h-3.96zm-29-1.91h27v8a1 1 0 0 0 1 1h6v25h-6v-13.71a.976.976 0 0 0 -.1-.44l-3-6.28a1 1 0 0 0 -1.8 0l-3 6.28a.976.976 0 0 0 -.1.44v13.71h-20zm26 22v12h-4v-12zm-3.76-2 1.76-3.68 1.76 3.68zm-23.24 16h36a1 1 0 0 0 1-1v-27h5v30h-48v-30h5v27a1 1 0 0 0 1 1zm25.74 17.67a1.036 1.036 0 0 0 .26-.77l-.19-1.9h4.25l.77 5h-25.66l.77-5h4.25l-.19 1.9a1.036 1.036 0 0 0 .26.77 1 1 0 0 0 .74.33h14a1 1 0 0 0 .74-.33zm-13.63-1.67.8-8h10.18l.8 8zm33.89-11a1 1 0 0 1 -1 1h-54a1 1 0 0 1 -1-1v-36a1 1 0 0 1 1-1h8v2h-6a1 1 0 0 0 -1 1v32a1 1 0 0 0 1 1h50a1 1 0 0 0 1-1v-32a1 1 0 0 0 -1-1h-7.29l-1.55-2h10.84a1 1 0 0 1 1 1z"/><path d="m18 7h7v2h-7z"/><path d="m28 7h11v2h-11z"/><path d="m18 12h21v2h-21z"/><path d="m29 20h-8a1 1 0 0 0 -1 1v10h2v-4h6v4h2v-10a1 1 0 0 0 -1-1zm-7 5v-3h6v3z"/></svg>