<svg id="Layer_1" height="512" viewBox="0 0 512 512" width="512" xmlns="http://www.w3.org/2000/svg" data-name="Layer 1"><path d="m157.33 437.091a172.769 172.769 0 0 1 -42.33-113.651c0-45.389 14.25-84.509 41.17-114.289a159.143 159.143 0 0 1 19.851-18.451l-17.311-4.341a8.168 8.168 0 0 1 -3.85-2.15 161.371 161.371 0 0 0 -28.69 24.94c-26.92 29.782-41.17 68.902-41.17 114.291a172.769 172.769 0 0 0 42.33 113.651 169.939 169.939 0 0 0 124.23 58.849q2.2.061 4.44.06t4.44-.06c3.549-.091 7.068-.3 10.56-.609a170.072 170.072 0 0 1 -113.67-58.24z" fill="#d4e1f4"/><path d="m256 502c97.6 0 177-80.1 177-178.561 0-29.631-5.6-57.1-16.645-81.644-11.414-25.367-28.105-46.36-49.608-62.4l-7.174 9.62a143.384 143.384 0 0 1 20.392 18.493 169.542 169.542 0 0 1 -35.531 29.273 181.425 181.425 0 0 0 -23.66-43.181l-9.616 7.178a170.149 170.149 0 0 1 22.742 42.061c-22.419 11.848-47.285 18.82-71.9 19.668v-52.033h-12v52.007a166.605 166.605 0 0 1 -72.164-19.781 163 163 0 0 1 24.276-43.424l-9.435-7.415a174.488 174.488 0 0 0 -25.347 44.727 165.866 165.866 0 0 1 -33-27.348 156.328 156.328 0 0 1 23.92-20.081l-6.773-9.906a161.2 161.2 0 0 0 -53.925 61.206c-12.31 24.526-18.552 52.441-18.552 82.98 0 98.461 79.4 178.561 177 178.561zm-103.509-172.561a242.006 242.006 0 0 0 11.17 68.99 176.962 176.962 0 0 0 -36.084 29.459 166.667 166.667 0 0 1 -36.459-98.449zm268.391 0a166.667 166.667 0 0 1 -36.439 98.423 175.191 175.191 0 0 0 -36.043-29.606 242.114 242.114 0 0 0 11.114-68.817zm-83.148 62.721a173.423 173.423 0 0 0 -75.734-19.815v-42.906h85.51a231.146 231.146 0 0 1 -9.776 62.721zm-87.734 96.253c-32.835-17.271-57.52-46.883-71.74-84.556a163.509 163.509 0 0 1 71.74-19.467zm12-104.057a161.536 161.536 0 0 1 71.81 19.324c-14.21 37.758-38.923 67.435-71.81 84.733zm-12-11.976a175.4 175.4 0 0 0 -75.676 19.962 231.062 231.062 0 0 1 -9.834-62.9h85.51zm-114.552 64.654a165.017 165.017 0 0 1 32.319-27.019c12.417 31.934 32.025 58.4 57.551 77.086a164.5 164.5 0 0 1 -89.87-50.067zm151.234 50.066c25.57-18.714 45.2-45.242 57.616-77.25a163.255 163.255 0 0 1 32.273 27.163 164.5 164.5 0 0 1 -89.889 50.087zm101.018-270.3c20.623 26.9 32.144 61.423 33.208 100.637h-61.387c-.519-24.718-4.242-47.944-11.009-69.105a182.238 182.238 0 0 0 39.188-31.532zm-49.9 37.492a232.859 232.859 0 0 1 9.722 63.147h-85.522v-42.921c25.9-.826 52.082-8.001 75.8-20.226zm-87.8 20.2v42.947h-85.523q.7-34.488 9.445-63.233a178.455 178.455 0 0 0 76.078 20.286zm-141.724-28.647a146.817 146.817 0 0 1 18-27.648 178.189 178.189 0 0 0 36.961 29.957q-10.007 31.376-10.768 69.285h-61.375c.758-26.301 6.524-50.362 17.182-71.594z" fill="#0635c9"/><g fill="#1ae5be"><path d="m311.638 110.912a5.991 5.991 0 0 0 1.972-.335l12.214-4.252a6 6 0 1 0 -3.946-11.333l-12.213 4.252a6 6 0 0 0 1.973 11.668z"/><path d="m97.646 77.086.317.152 15.937 5.452v65.51a6 6 0 0 0 12 0v-61.4l19.917 6.814.635 84.869a14.139 14.139 0 0 0 10.8 13.7l95.248 23.876a15.391 15.391 0 0 0 3.559.416 14.946 14.946 0 0 0 3.45-.4l100.06-22.565a14.363 14.363 0 0 0 11.02-13.764l1.51-89.531 37.68-13.115.383-.2a12.446 12.446 0 0 0 -1.711-22.8l-135.178-42.5a30.08 30.08 0 0 0 -18.675-.219l-155.108 42.574-.21.062a12.444 12.444 0 0 0 -1.634 23.069zm5.165-11.6 155.066-42.574.218-.064a18.166 18.166 0 0 1 11.385.125l135.151 42.5c.1.038.2.1.219.354a.454.454 0 0 1 -.06.3l-66.582 23.18a6 6 0 0 0 3.945 11.333l17.873-6.222-1.435 85.125a2.358 2.358 0 0 1 -1.729 2.277l-100.062 22.566a3.257 3.257 0 0 1 -1.455.017l-95.245-23.878a2.185 2.185 0 0 1 -1.653-2.137l-.6-80.664 86.688 29.658a30.242 30.242 0 0 0 21.6-.276l31.83-11.081a6 6 0 1 0 -3.945-11.333l-31.956 11.125-.265.1a18.262 18.262 0 0 1 -13.173.183l-107.453-36.761 69.062-17.014a6 6 0 1 0 -2.87-11.651l-87.194 21.48-17.484-5.982a.408.408 0 0 1 -.081-.332c.018-.24.103-.313.205-.352z"/></g></svg>