<svg id="Solid_Revise_G" height="512" viewBox="0 0 512 512" width="512" xmlns="http://www.w3.org/2000/svg" xmlns:xlink="http://www.w3.org/1999/xlink" data-name="Solid Revise G"><linearGradient id="linear-gradient" gradientUnits="userSpaceOnUse" x1="256" x2="256" y1="11.498" y2="516.095"><stop offset="0" stop-color="#ff91d2"/><stop offset=".262" stop-color="#f68bd9"/><stop offset=".688" stop-color="#de79ed"/><stop offset=".999" stop-color="#c86aff"/></linearGradient><linearGradient id="linear-gradient-2" x1="188.959" x2="188.959" xlink:href="#linear-gradient" y1="11.498" y2="516.095"/><linearGradient id="linear-gradient-3" x1="206.607" x2="206.607" xlink:href="#linear-gradient" y1="11.498" y2="516.095"/><linearGradient id="linear-gradient-4" x1="206.636" x2="206.636" xlink:href="#linear-gradient" y1="11.498" y2="516.095"/><linearGradient id="linear-gradient-7" x1="305.364" x2="305.364" xlink:href="#linear-gradient" y1="11.498" y2="516.095"/><linearGradient id="linear-gradient-9" x1="323.041" x2="323.041" xlink:href="#linear-gradient" y1="11.498" y2="516.095"/><linearGradient id="linear-gradient-10" x1="305.393" x2="305.393" xlink:href="#linear-gradient" y1="11.498" y2="516.095"/><g><g><path d="m48 32v32h416v-32zm48 24h-16v-16h16zm32 0h-16v-16h16zm32 0h-16v-16h16zm272 0h-16v-16h16z" fill="url(#linear-gradient)"/><g><path d="m208 200.032a151.411 151.411 0 0 1 1.918-24.032h-38.592a88.253 88.253 0 0 0 0 48h38.582a151.447 151.447 0 0 1 -1.908-23.968z" fill="url(#linear-gradient-2)"/><path d="m177.627 240a88.358 88.358 0 0 0 57.959 45.61 134.938 134.938 0 0 1 -22.2-45.61z" fill="url(#linear-gradient-3)"/><path d="m235.645 114.376a88.354 88.354 0 0 0 -58.018 45.624h35.773a134.894 134.894 0 0 1 22.245-45.624z" fill="url(#linear-gradient-4)"/><path d="m224 200.032a135.824 135.824 0 0 0 2.126 23.968h59.748a136.182 136.182 0 0 0 -.011-48h-59.726a135.861 135.861 0 0 0 -2.137 24.032z" fill="url(#linear-gradient)"/><path d="m281.941 160c-5.415-17.285-14.291-32.786-25.941-44.85-11.65 12.064-20.526 27.565-25.941 44.85z" fill="url(#linear-gradient)"/><path d="m276.355 114.376a134.894 134.894 0 0 1 22.245 45.624h35.777a88.354 88.354 0 0 0 -58.022-45.624z" fill="url(#linear-gradient-7)"/><path d="m230.039 240c5.413 17.31 14.3 32.836 25.961 44.914 11.664-12.078 20.548-27.6 25.961-44.914z" fill="url(#linear-gradient)"/><path d="m304 200.032a151.447 151.447 0 0 1 -1.908 23.968h38.582a88.253 88.253 0 0 0 0-48h-38.592a151.411 151.411 0 0 1 1.918 24.032z" fill="url(#linear-gradient-9)"/><path d="m276.414 285.61a88.358 88.358 0 0 0 57.959-45.61h-35.759a134.938 134.938 0 0 1 -22.2 45.61z" fill="url(#linear-gradient-10)"/></g></g><path d="m462 368h-198v-16h128a8 8 0 0 0 8-8v-24h64v-240h-416v240h336v16h-128a8 8 0 0 0 -8 8v24h-198a2 2 0 0 0 -2 2v108a2 2 0 0 0 2 2h412a2 2 0 0 0 2-2v-108a2 2 0 0 0 -2-2zm-206-64a104 104 0 1 1 104-104 104.118 104.118 0 0 1 -104 104zm-160 160h-16v-16h16zm0-32h-16v-16h16zm0-32h-16v-16h16zm48 64h-16v-16h16zm0-32h-16v-16h16zm0-32h-16v-16h16zm48 64h-16v-16h16zm0-32h-16v-16h16zm0-32h-16v-16h16zm48 64h-16v-16h16zm0-32h-16v-16h16zm0-32h-16v-16h16zm48 64h-16v-16h16zm0-32h-16v-16h16zm0-32h-16v-16h16zm48 64h-16v-16h16zm0-32h-16v-16h16zm0-32h-16v-16h16zm48 64h-16v-16h16zm0-32h-16v-16h16zm0-32h-16v-16h16zm48 64h-16v-16h16zm0-32h-16v-16h16zm0-32h-16v-16h16z" fill="url(#linear-gradient)"/></g></svg>