<?xml version="1.0" encoding="utf-8"?>
<!-- Generator: Adobe Illustrator 24.0.2, SVG Export Plug-In . SVG Version: 6.00 Build 0)  -->
<svg version="1.1" id="Calque_1" xmlns="http://www.w3.org/2000/svg" xmlns:xlink="http://www.w3.org/1999/xlink" x="0px" y="0px"
	 width="247.3px" height="110.9px" viewBox="0 0 247.3 110.9" style="enable-background:new 0 0 247.3 110.9;" xml:space="preserve"
	>
<style type="text/css">
	.st0{fill:#2A2D46;}
	.st1{fill:#E74E0F;}
</style>
<g id="New_Symbol_63">
</g>
<g id="New_Symbol_74">
</g>
<g>
	<g>
		<g>
			<path class="st0" d="M201.7,71.7c0,4.8-3.7,8.3-8.5,8.3h-4.1v7.5h-5.2V63.4h9.3C198,63.4,201.7,66.9,201.7,71.7z M196.4,71.7
				c0-2-1.4-3.5-3.5-3.5h-3.8v6.9h3.8C195,75.1,196.4,73.7,196.4,71.7z"/>
			<path class="st0" d="M204,78.4V63.4h5.2v14.8c0,3,2,4.9,4.7,4.9c2.8,0,4.7-1.9,4.7-4.9V63.4h5.2v15.1c0,5.7-4.3,9.6-10,9.6
				C208.3,88,204,84.1,204,78.4z"/>
			<path class="st0" d="M226.9,79.7h5.3c0,2.3,1.9,3.5,4.1,3.5c2,0,3.9-1,3.9-2.8c0-1.9-2.2-2.4-4.8-3c-3.6-0.9-8.1-2-8.1-7.2
				c0-4.6,3.4-7.2,8.8-7.2c5.6,0,8.7,3,8.7,7.8h-5.2c0-2.1-1.7-3.1-3.7-3.1c-1.7,0-3.4,0.7-3.4,2.3c0,1.7,2.1,2.2,4.7,2.8
				c3.7,0.9,8.3,2.1,8.3,7.5c0,5.2-4.2,7.7-9.2,7.7C230.7,88,226.9,84.9,226.9,79.7z"/>
		</g>
		<g>
			<g>
				<path class="st0" d="M127.7,78.1c-0.9,3.1-3.3,5-6.5,5c-4.1,0-7.2-3.2-7.2-7.6c0-4.3,3.1-7.6,7.2-7.6c3,0,5.5,1.8,6.4,4.6h5.2
					c-1.1-5.7-5.8-9.6-11.7-9.6c-7.1,0-12.5,5.4-12.5,12.6c0,7.1,5.4,12.6,12.5,12.6l0,0c1.8,0,3.5-0.4,5-1l5.1-8.9H127.7z"/>
				<polygon class="st0" points="177.7,63.4 172.4,63.4 165.9,78.2 159.3,63.4 154.1,63.4 152.3,74.9 156.5,82 158,71.7 165.2,87.5 
					166.5,87.5 173.7,71.7 176.1,87.5 181.4,87.5 				"/>
			</g>
			<g>
				<path class="st1" d="M142.7,82.1c1.8,3.2,3.6,6.3,5.5,9.5c-3.7,0-7.3,0-11,0C139.1,88.4,140.9,85.3,142.7,82.1z"/>
				<path class="st0" d="M142.7,62.6c4.8,8.4,9.6,16.7,14.4,25c-0.2,0-6,0-6,0c-2.6-4.5-5.5-9.6-8.1-14.1c-0.1-0.2-0.2-0.3-0.3-0.5
					c-0.1,0.2-0.2,0.4-0.3,0.5c-2.6,4.5-5.5,9.6-8.1,14.1c0,0-5.7,0-6,0C133.1,79.2,137.9,70.9,142.7,62.6z"/>
			</g>
		</g>
	</g>
	<path class="st1" d="M52.2,7.4l0,7.8c11.1,0,21.6,4.3,29.6,12c7.9,7.7,12.5,18.1,12.8,29.1l0,43.7l-42.8,0
		c-11.6-0.1-22.3-4.8-30.3-13.2c-8-8.4-12.1-19.4-11.6-31c0.9-21.8,18.6-39.6,40.4-40.6c0.7,0,1.3,0,2,0h0L52.2,7.4 M52.2,7.4
		c-0.8,0-1.6,0-2.3,0.1C24.1,8.6,3.1,29.7,2,55.5c-1.2,28.5,21.5,52.1,49.8,52.3l47.3,0h0c1.9,0,3.3-1.5,3.3-3.4l0-48.3
		C101.7,29.1,79.5,7.4,52.2,7.4L52.2,7.4z"/>
	<path class="st1" d="M45.3,86.5v-8.7h4.4v-23h-4.4v-8.7h16.4v31.6h3.9v8.7H45.3z M62.7,34.9c0,1.9-0.7,3.6-2,4.9
		c-1.4,1.4-3,2-4.9,2c-1.9,0-3.6-0.7-4.9-2c-1.4-1.4-2-3-2-4.9c0-1.9,0.7-3.6,2-4.9c1.4-1.4,3-2,4.9-2c1.9,0,3.5,0.7,4.9,2
		C62,31.3,62.7,33,62.7,34.9z"/>
</g>
</svg>
